<svg id="Layer_1" data-name="Layer 1" xmlns="http://www.w3.org/2000/svg" viewBox="0 0 441.27 323.32"><defs><style>.cls-1{fill:#fff;}</style></defs><path class="cls-1" d="M235.73,243.34a58.18,58.18,0,0,1-7.83.5,50.67,50.67,0,0,1-20.85-4.26,44.6,44.6,0,0,1-16.36-12.34,43.91,43.91,0,0,1-6.68-10.9,13,13,0,0,1-2.88,3.47,83.22,83.22,0,0,1-.59,28c-1.79,9.27-3.27,18.58-4.41,28a107.49,107.49,0,0,1-16.4,6.5c-5.8,1.78-11.7,3.32-17.74,4.55s-12.09,2.58-18.28,3.87-12.14,2.62-17.84,4c.79-1.93.59-3.07-.6-3.37a2.48,2.48,0,0,1-2.08-1.93c1-3.91,2-8.77,3.12-14.47s2.13-11.59,3.22-17.69,2-12.14,2.68-18,1.14-11.1,1.34-15.61c-2.38-4.36-11.69-8.24-14.41-11.81s-3.41-7.73-6.09-11.25S89,192,86.74,188.2s-6.4-4-7.78-8.94c-7.29,2-13.37,4.41-16.74,11.25A84.73,84.73,0,0,0,55,214.09c-1.49,9,4.25,18.2,3.81,27.86A215.46,215.46,0,0,1,56,268.21a7.76,7.76,0,0,0-2.52-.14,1.46,1.46,0,0,0-1.29,1.33,19.16,19.16,0,0,1,1.14,7.24,55.64,55.64,0,0,1-.84,9.31,42.45,42.45,0,0,1-2.83,9.12,23.39,23.39,0,0,1-4.56,7.09A107.8,107.8,0,0,1,43,318.56a41.81,41.81,0,0,1-7.38,16.64,6.94,6.94,0,0,1,.89,4.17,15.73,15.73,0,0,1-1,3.51,37.15,37.15,0,0,0-1.34,3.87,12,12,0,0,0,0,5.3c-.79-.79-1.43-.94-1.93-.45a5.86,5.86,0,0,0-1.14,2.23,27.75,27.75,0,0,0-.74,3.08,4.65,4.65,0,0,1-1.19,2.52,47.29,47.29,0,0,1,4,9.42A23.93,23.93,0,0,0,38,377.42a1.68,1.68,0,0,0-1.93,0,2.33,2.33,0,0,0-.9,1.48,3.65,3.65,0,0,0,.15,1.79.83.83,0,0,0,1.19.59c0,.6.5,1.14,1.49,1.74l3.37,2.08a24.73,24.73,0,0,1,3.71,2.82,5,5,0,0,1,1.74,3.67c4.56,2.38,8.42,3.62,11.69,3.72a22.37,22.37,0,0,0,9-1.49,54.15,54.15,0,0,0,8.12-4,41.34,41.34,0,0,1,9-3.82q.6-2.08,0-2.82A9,9,0,0,1,83.42,381c1.79.19,3.47-.9,5.16-3.27a46.54,46.54,0,0,0,4.6-8.13c1.34-3,2.53-5.95,3.52-8.67a24.7,24.7,0,0,0,1.49-5.06c2.92-1.73,6.84-4,11.64-6.63s10.06-5.21,15.66-7.68,11.35-4.66,17.24-6.64a85.18,85.18,0,0,1,17.15-3.82c0,.2-.25,1.54-.75,4s-1,5.11-1.48,7.83-1,5.35-1.34,7.83-.6,3.82-.6,4a25.49,25.49,0,0,0,4,15.16,72.86,72.86,0,0,0,10.15,12.53l-1.43,2.68a16.44,16.44,0,0,1,6,2.82,52.76,52.76,0,0,0,5.45,3.67c4.11-1.39,8.33-2.87,12.54-4.56a38.48,38.48,0,0,0,11.2-6.79,30.16,30.16,0,0,0,7.68-10.35q2.82-6,2.23-15.16c-1.79-3.37-2.43-6.3-1.94-8.73a16.31,16.31,0,0,0-.44-7.82,20,20,0,0,0,4.46-5.9,70.54,70.54,0,0,0,3.07-7.23c.89-2.48,1.83-4.91,2.82-7.39a21.14,21.14,0,0,1,3.82-6.34,168.12,168.12,0,0,1,4.9-26.71q3.34-12.56,6.05-25.86C236.18,253.5,236,248.4,235.73,243.34Z" transform="translate(-29.12 -72)"/><path class="cls-1" d="M189.1,187.2a53.59,53.59,0,0,1,6.83-18.35,59.44,59.44,0,0,1,12.41-14.72,56.65,56.65,0,0,1,16.58-9.84,52.27,52.27,0,0,1,19-3.55,42.92,42.92,0,0,1,17.82,3.55,35.25,35.25,0,0,1,13,9.84A37.27,37.27,0,0,1,282,168.85a43.29,43.29,0,0,1,.36,18.35,54.67,54.67,0,0,1-6.83,18.26,58.83,58.83,0,0,1-12.41,14.81,56.89,56.89,0,0,1-16.49,9.84,52.08,52.08,0,0,1-19.06,3.55,42.48,42.48,0,0,1-17.65-3.55,36,36,0,0,1-13.12-9.84,36.67,36.67,0,0,1-7.35-14.81A43,43,0,0,1,189.1,187.2Zm32.45,12.24q3.9,4.78,11.17,4.78a19.26,19.26,0,0,0,12.94-4.88,20.84,20.84,0,0,0,7.1-12.14q1.23-7.27-2.75-12.14t-11.26-4.88a16.83,16.83,0,0,0-6.56,1.33,20.37,20.37,0,0,0-5.85,3.72,29.33,29.33,0,0,0-4.7,5.41,20.5,20.5,0,0,0-2.93,6.56v.35C218,192.29,219,196.24,221.55,199.44Z" transform="translate(-29.12 -72)"/><path class="cls-1" d="M467.47,236a6.28,6.28,0,0,1-1.8-2.44c-.49-1-1.07-2.09-1.65-3.21a8,8,0,0,0-2.58-2.63,6.34,6.34,0,0,1-5.16,0,34.73,34.73,0,0,1-4.62-2.78c-1.56-1.12-3.17-2.33-4.87-3.6a10.75,10.75,0,0,0-5.35-2.29,82.93,82.93,0,0,1-15.38,7.84,43.51,43.51,0,0,0-14.16,8.51,126.45,126.45,0,0,0-17,4.72c-4.37,1.71-8.66,3.31-12.79,5s-8.67,3.11-13.43,4.52a101.65,101.65,0,0,1-18.59,3.26,138.17,138.17,0,0,1,3.3-18.29,112,112,0,0,1,5.75-16.84,26.21,26.21,0,0,0,9.15-1.12,19.77,19.77,0,0,1,8.9-.68c1.46-1.51,3.8-2.43,7.06-2.78s5.55-1.26,7-2.77a4.72,4.72,0,0,0,2.33.44c.54-.15,1.36-.34,2.43-.63a45.75,45.75,0,0,0,13.68-5,66.16,66.16,0,0,0,10.75-7.64,86.83,86.83,0,0,0,9.15-9.34c2.82-3.31,5.65-6.62,8.52-9.83a12.1,12.1,0,0,0-.78-6.52,21.82,21.82,0,0,0-3.16-5.21,8.93,8.93,0,0,1-5.94.29,23.49,23.49,0,0,1-5.6-2.53c-1.89-1.12-3.79-2.28-5.69-3.55a36,36,0,0,0-5.55-2.92c-.44-.78-.48-1.41-.1-1.85s.3-1.12-.19-2.14c-8.81,2.38-17.62,5.21-26.57,8.32a141.43,141.43,0,0,1-24.92,6.57,10.07,10.07,0,0,1-2-4.77,13.79,13.79,0,0,0-2.63-5.69c1.75-1.12,3.55-2.19,5.36-3.21a10.86,10.86,0,0,0,4.13-4c4.43-.64,7.64-1.76,9.64-3.41a9.34,9.34,0,0,1,7.54-1.9A65.36,65.36,0,0,1,401,132.05c6.91-3.07,13.62-6.08,20.24-9A79.45,79.45,0,0,0,439,112.44c5.25-4.14,9.19-10.46,11.92-18.93a12.33,12.33,0,0,1-1.51-3.21,11.17,11.17,0,0,1-.34-2.14c-.1-.69-.15-1.41-.24-2.19a11.47,11.47,0,0,0-1-3.31,55.3,55.3,0,0,1-12.7-3.56A30.89,30.89,0,0,1,424.55,72c.68,1.85.39,2.58-1,2.14s-2.24.39-2.58,2.53c-1.75.44-3.8-.1-6.23-1.56q-12.92,6-23.21,9.93t-19.86,7.89c-6.27,2.62-12.65,5.54-19.07,8.71s-13.53,7.3-21.46,12.21c-4.43,2.29-8.71,4.38-12.8,6.33a84.69,84.69,0,0,0-11.15,6.23,44.8,44.8,0,0,0-8.9,7.54,28.25,28.25,0,0,0-5.94,9.88,65.38,65.38,0,0,1,5,10.22c1.31,3.45,2.72,6.76,4.18,9.92a53.66,53.66,0,0,0,5.6,9.25,27.29,27.29,0,0,0,8.9,7.54c-.48,4.48-1.12,8.57-1.89,12.31s-1.56,7.4-2.39,11.05-1.51,7.35-2.19,11.19-1.12,7.79-1.41,12c-1.61.15-2.34.73-2.34,1.76a2.16,2.16,0,0,1-1.46,2.23,12.22,12.22,0,0,1,.78,2.1,46.83,46.83,0,0,1,9.35,3.26,44.56,44.56,0,0,1,15.81,12.41,45.35,45.35,0,0,1,8.86,18,48.58,48.58,0,0,1,.48,21.07,55.53,55.53,0,0,1-4.18,13.63,39,39,0,0,0,9.78,1.17,98.36,98.36,0,0,0,21-2.34,140,140,0,0,0,20.74-6.23c6.66-2.58,12.36-5,17-7.35a11.59,11.59,0,0,1,4.72-.29,8.37,8.37,0,0,0,4.91-1.07c7.55-3.5,14.5-6.62,20.78-9.34a100,100,0,0,0,16.79-9,44.48,44.48,0,0,0,12.22-12.16c3.26-4.82,5.64-11.19,7.05-19.08A2.59,2.59,0,0,1,467.47,236Z" transform="translate(-29.12 -72)"/><path class="cls-1" d="M326.58,282.38a43.17,43.17,0,0,1-5.75,15.44,49.43,49.43,0,0,1-10.74,12.56,52.19,52.19,0,0,1-14.15,8.4,42.81,42.81,0,0,1-16,3.1,35.27,35.27,0,0,1-13.46-2.42l-5.3,30.12H235.48L254.1,244.1h25.72l-.3,1.81a24.25,24.25,0,0,1,7.11-2.8,34.79,34.79,0,0,1,7.42-.83,34,34,0,0,1,14.83,3.18,31.62,31.62,0,0,1,11.12,8.7A32.61,32.61,0,0,1,326.28,267,36,36,0,0,1,326.58,282.38ZM275,292.52a11.47,11.47,0,0,0,9.53,3.94,15.33,15.33,0,0,0,5.83-1.14,20,20,0,0,0,5.14-3,17,17,0,0,0,3.94-4.53,15.33,15.33,0,0,0,2-5.68,14.69,14.69,0,0,0-.15-5.6,12.5,12.5,0,0,0-2.12-4.62,10.4,10.4,0,0,0-3.86-3.17,12.11,12.11,0,0,0-5.37-1.14,15.16,15.16,0,0,0-5.9,1.21,20.47,20.47,0,0,0-5.3,3.26,18.67,18.67,0,0,0-4,4.69,17.67,17.67,0,0,0-2.19,5.67Q271.5,288.44,275,292.52Z" transform="translate(-29.12 -72)"/></svg>